<svg width="18" height="9" viewBox="0 0 18 9" fill="none" xmlns="http://www.w3.org/2000/svg">
<path d="M2.02616 3.74065e-07L0.190375 3.29695e-07C0.0312578 3.2585e-07 -0.0566129 0.145589 0.0407572 0.243908L8.40272 8.76741C8.47346 8.83983 8.56404 8.89843 8.66755 8.93874C8.77106 8.97905 8.88477 9 9 9C9.11523 9 9.22894 8.97905 9.33245 8.93874C9.43596 8.89843 9.52654 8.83983 9.59728 8.76741L17.9592 0.243908C18.0566 0.143698 17.9687 7.5938e-07 17.8096 7.55535e-07L15.9738 7.11166e-07C15.8575 7.08353e-07 15.7459 0.0434875 15.6746 0.115336L9.00119 6.92204L2.32539 0.115336C2.25415 0.0434872 2.14253 3.76877e-07 2.02616 3.74065e-07V3.74065e-07Z" fill="#B0B0B0"/>
</svg>
