<svg width="30" height="30" viewBox="0 0 30 30" fill="none" xmlns="http://www.w3.org/2000/svg">
<path d="M13.6884 20.7683C11.6227 20.5529 9.76025 20.0441 8.16567 18.797C7.96781 18.6418 7.76353 18.4923 7.58298 18.319C6.88503 17.6486 6.81471 16.8809 7.36698 16.0898C7.83944 15.4128 8.63255 15.2316 9.45691 15.6204C9.61654 15.6957 9.76863 15.7898 9.9143 15.8908C12.8861 17.9327 16.9685 17.9891 19.9515 15.9826C20.247 15.756 20.5629 15.5713 20.929 15.4769C21.6409 15.2942 22.3048 15.5556 22.6869 16.1785C23.1233 16.8899 23.1178 17.5842 22.58 18.1364C21.7551 18.9831 20.763 19.5957 19.6607 20.0232C18.6184 20.4273 17.4767 20.6307 16.3468 20.7658C16.5173 20.9514 16.5977 21.0426 16.7043 21.1498C18.2386 22.6914 19.7796 24.2265 21.3089 25.7728C21.8299 26.2997 21.9387 26.953 21.6518 27.5658C21.3382 28.2356 20.636 28.6762 19.9476 28.6291C19.5114 28.5989 19.1712 28.3818 18.869 28.0774C17.7111 26.9122 16.5315 25.7686 15.3971 24.5815C15.067 24.2363 14.9082 24.3016 14.6168 24.6013C13.452 25.8004 12.2682 26.9812 11.0774 28.1552C10.5428 28.6824 9.90649 28.7772 9.2864 28.4761C8.62725 28.1566 8.20781 27.4838 8.24018 26.8076C8.26251 26.3502 8.48743 26.0008 8.80138 25.6874C10.3198 24.1713 11.834 22.6512 13.3488 21.1325C13.449 21.0315 13.5424 20.9243 13.6884 20.7683Z" fill="#B0B0B0"/>
<path d="M14.9471 15.487C11.2621 15.4745 8.24034 12.4195 8.26183 8.7286C8.28304 4.99692 11.3067 1.9897 15.0281 2.00003C18.757 2.01007 21.7499 5.06055 21.7313 8.83101C21.7123 12.5144 18.6696 15.4999 14.9471 15.487ZM18.2962 8.73753C18.2898 6.9049 16.8303 5.44594 15.0013 5.44426C13.1569 5.44231 11.6843 6.92778 11.6985 8.77715C11.7122 10.6028 13.1843 12.0514 15.0183 12.0447C16.8468 12.0383 18.3024 10.5699 18.2962 8.73753Z" fill="#B0B0B0"/>
</svg>
