<svg width="288" height="288" viewBox="0 0 288 288" fill="none" xmlns="http://www.w3.org/2000/svg">
<g clip-path="url(#clip0_575_7)">
<path d="M267.749 191.076C253.154 179.347 239.766 173.645 226.819 173.645C208.09 173.645 194.605 185.559 182.396 197.764C180.992 199.169 179.292 199.824 177.047 199.824C166.759 199.825 148.66 186.941 123.253 161.531C93.3633 131.639 82.0624 112.627 89.6614 105.025C110.261 84.4319 116.692 63.7879 85.1524 24.5629C73.8614 10.5099 62.8144 3.67993 51.3804 3.67993C35.9604 3.67993 24.2384 16.0059 13.8964 26.8819C12.1084 28.7619 10.4194 30.5379 8.76335 32.1939C-2.92565 43.8819 -2.91965 69.3759 8.78035 100.394C21.6174 134.427 46.9634 171.449 80.1504 204.641C105.815 230.304 133.74 251.044 160.908 264.969C184.627 277.127 207.634 283.641 225.691 283.641C225.693 283.641 225.695 283.641 225.698 283.641C236.998 283.641 246.177 281.176 252.239 276.163C264.553 265.982 287.473 247.124 287.32 224.724C287.236 212.71 280.653 201.451 267.749 191.076Z" fill="#C1C1C1"/>
</g>
<defs>
<clipPath id="clip0_575_7">
<rect width="287.32" height="287.32" fill="white"/>
</clipPath>
</defs>
</svg>
