<svg width="30" height="30" viewBox="0 0 30 30" fill="none" xmlns="http://www.w3.org/2000/svg">
<g clip-path="url(#clip0_608_24)">
<path d="M26.7031 18.4471C26.7031 18.4471 29.1286 20.8426 29.7286 21.9511C29.7403 21.9671 29.7494 21.9848 29.7556 22.0036C30.0001 22.4131 30.0601 22.7341 29.9401 22.9711C29.7376 23.3626 29.0521 23.5591 28.8196 23.5756H24.5326C24.2341 23.5756 23.6131 23.4976 22.8571 22.9756C22.2796 22.5721 21.7051 21.9076 21.1486 21.2581C20.3176 20.2936 19.5991 19.4566 18.8716 19.4566C18.7798 19.4564 18.6885 19.4716 18.6016 19.5016C18.0511 19.6756 17.3521 20.4601 17.3521 22.5496C17.3521 23.2036 16.8361 23.5756 16.4746 23.5756H14.5111C13.8421 23.5756 10.3591 23.3416 7.27064 20.0851C3.48614 16.0981 0.0871351 8.10006 0.0541351 8.02956C-0.157365 7.51206 0.286635 7.23006 0.766635 7.23006H5.09564C5.67614 7.23006 5.86514 7.58106 5.99714 7.89606C6.15014 8.25756 6.71714 9.70356 7.64714 11.3281C9.15314 13.9711 10.0786 15.0466 10.8181 15.0466C10.9571 15.047 11.0937 15.0108 11.2141 14.9416C12.1801 14.4106 12.0001 10.9606 11.9551 10.2496C11.9551 10.1116 11.9536 8.70906 11.4586 8.03106C11.1046 7.54506 10.5016 7.35606 10.1371 7.28706C10.2346 7.14606 10.4416 6.93006 10.7071 6.80256C11.3686 6.47256 12.5641 6.42456 13.7506 6.42456H14.4091C15.6961 6.44256 16.0291 6.52506 16.4971 6.64356C17.4391 6.86856 17.4571 7.47906 17.3746 9.55806C17.3506 10.1521 17.3251 10.8211 17.3251 11.6086C17.3251 11.7766 17.3176 11.9641 17.3176 12.1546C17.2891 13.2211 17.2516 14.4226 18.0046 14.9161C18.1023 14.9769 18.2151 15.0091 18.3301 15.0091C18.5911 15.0091 19.3726 15.0091 21.4921 11.3716C22.4221 9.76506 23.1421 7.87056 23.1916 7.72806C23.2336 7.64856 23.3596 7.42506 23.5126 7.33506C23.6215 7.27715 23.7434 7.24823 23.8666 7.25106H28.9591C29.5141 7.25106 29.8906 7.33506 29.9641 7.54506C30.0871 7.88556 29.9401 8.92506 27.6151 12.0691C27.2236 12.5926 26.8801 13.0456 26.5786 13.4416C24.4711 16.2076 24.4711 16.3471 26.7031 18.4471V18.4471Z" fill="#B0B0B0"/>
</g>
<defs>
<clipPath id="clip0_608_24">
<rect width="30" height="30" fill="white"/>
</clipPath>
</defs>
</svg>
