<svg width="30" height="30" viewBox="0 0 30 30" fill="none" xmlns="http://www.w3.org/2000/svg">
<path d="M14.3644 2.01504C7.4419 2.34198 1.97906 8.06051 2.00006 14.9349C2.00645 17.0286 2.51604 19.0048 3.41498 20.751L2.03479 27.3965C1.96013 27.7559 2.28698 28.0707 2.647 27.9861L9.21182 26.4433C10.8984 27.2767 12.7928 27.758 14.7978 27.7884C21.8733 27.8956 27.773 22.3229 27.9935 15.3072C28.2299 7.78685 21.9726 1.65563 14.3644 2.01504ZM22.1977 22.0345C20.2751 23.9415 17.7189 24.9917 15 24.9917C13.408 24.9917 11.8838 24.6374 10.4696 23.9387L9.55541 23.487L5.5305 24.4329L6.37772 20.3534L5.92731 19.4785C5.19318 18.0524 4.82094 16.5102 4.82094 14.8949C4.82094 12.198 5.87973 9.66247 7.80229 7.75539C9.70768 5.8654 12.3056 4.79806 15.0002 4.79806C17.7191 4.79813 20.2752 5.84836 22.1977 7.75532C24.1203 9.66235 25.1791 12.1978 25.1792 14.8947C25.1791 17.5677 24.1031 20.1445 22.1977 22.0345Z" fill="#B0B0B0"/>
<path d="M21.2972 17.6582L18.6933 16.9691C18.351 16.8786 17.9823 16.9681 17.7329 17.2023L17.0961 17.8002C16.8276 18.0523 16.4202 18.1333 16.0649 18.0008C14.8331 17.5414 12.242 15.4183 11.5803 14.3563C11.3894 14.0499 11.421 13.667 11.6554 13.3874L12.2113 12.7246C12.4291 12.465 12.4751 12.1162 12.331 11.816L11.2355 9.53262C10.9731 8.98572 10.2148 8.82651 9.71933 9.21266C8.9926 9.77911 8.13033 10.6399 8.02551 11.5935C7.84071 13.2748 8.62311 15.3942 11.5818 17.9391C14.9999 20.8791 17.7371 21.2675 19.5193 20.8697C20.5301 20.644 21.3379 19.7395 21.8478 18.9988C22.1953 18.4938 21.9209 17.8232 21.2972 17.6582Z" fill="#B0B0B0"/>
</svg>
